<?xml version="1.0" encoding="utf-8"?>
<!-- Generator: Adobe Illustrator 19.2.1, SVG Export Plug-In . SVG Version: 6.00 Build 0)  -->
<svg version="1.1" id="Layer_1" xmlns="http://www.w3.org/2000/svg" xmlns:xlink="http://www.w3.org/1999/xlink" x="0px" y="0px"
	 viewBox="0 0 18 150" style="enable-background:new 0 0 18 150;" xml:space="preserve">
<style type="text/css">
	.st0{display:none;fill:none;stroke:#FFFFFF;stroke-width:2;stroke-linecap:round;stroke-miterlimit:10;}
	.st1{fill:#5CDBA9;}
	.st2{fill:#5CDBFF;}
	.st3{fill:#42C18E;}
	.st4{fill:#4DC0FF;}
	.st5{fill:#459571;}
	.st6{fill:#457BA4;}
	.st7{fill:#1A9DED;}
	.st8{fill:#1A71ED;}
	.st9{fill:#58595B;}
	.st10{fill:#F9D35B;}
	.st11{fill:#414042;}
	.st12{opacity:0.4;fill:#414042;}
	.st13{fill:#EDDABB;}
	.st14{fill:#DECDB1;}
	.st15{fill:#F8E7D1;}
	.st16{fill:#C4DFED;}
	.st17{fill:#DEF8FF;}
	.st18{fill:#D1F1FF;}
	.st19{fill:#585963;}
	.st20{fill:#FF868A;}
	.st21{fill:#FF9296;}
	.st22{fill:#EC8287;}
	.st23{fill:#272D38;}
	.st24{fill:#F2F2F2;}
	.st25{fill:#59D6D6;}
	.st26{fill:#56C681;}
	.st27{clip-path:url(#SVGID_2_);fill:#E6E6E6;}
	.st28{fill:#54CBCB;}
	.st29{fill:#52BC7A;}
	.st30{fill:#FFD900;}
	.st31{fill:#FFDE00;}
	.st32{fill:#FFA400;}
	.st33{fill:#47413A;}
	.st34{fill:#FFD16A;}
	.st35{fill:#FF888A;}
	.st36{fill:#E1E2E3;}
	.st37{fill:#45AEFF;}
	.st38{fill:#FFC749;}
	.st39{fill:#FF6A71;}
	.st40{fill:#B7B9BB;}
	.st41{fill:#4585FF;}
	.st42{fill:#52597A;}
	.st43{fill:#699BFF;}
	.st44{fill:#64428F;}
	.st45{fill:#FFFFFF;}
	.st46{fill:#5C8BFF;}
	.st47{fill:#D9D9D9;}
	.st48{fill:#49A86E;}
	.st49{fill:#F020D4;}
	.st50{fill:#B363E7;}
	.st51{fill:#FFD684;}
	.st52{fill:#D420C1;}
	.st53{fill:#FFB876;}
	.st54{fill:#A14DD8;}
	.st55{fill:#8248AA;}
	.st56{fill:#77675D;}
	.st57{fill:#C7AB91;}
	.st58{fill:#B59D84;}
	.st59{fill:#675A51;}
	.st60{fill:#9E8774;}
	.st61{fill:#D4B699;}
	.st62{fill:#554650;}
	.st63{fill:#A47C50;}
	.st64{fill:#BDB096;}
	.st65{fill:#BF956C;}
	.st66{fill:#594A42;}
	.st67{fill:#7C37A3;}
	.st68{fill:#733789;}
	.st69{fill:#94C969;}
	.st70{fill:#70B339;}
	.st71{fill:#AF4FE4;}
	.st72{fill:#CCCECF;}
	.st73{fill:#39C24A;}
	.st74{fill:#4EE94A;}
	.st75{fill:#ECEDED;}
	.st76{fill:#559055;}
	.st77{fill:#C766E5;}
	.st78{fill:#AC33D0;}
	.st79{fill:#E4E5E5;}
	.st80{fill:#F6AB40;}
	.st81{fill:#754C29;}
	.st82{fill:#A2A4A7;}
	.st83{opacity:0.3;fill:#FFFFFF;}
	.st84{fill:#755941;}
</style>
<g>
	<g id="XMLID_7_">
		<g>
			<g>
				<path class="st36" d="M12,91c1.1,0,2,0.9,2,2v47v1c0,0.55-0.22,1.05-0.59,1.41C13.05,142.78,12.55,143,12,143c-1.1,0-2-0.9-2-2
					v-1V93c0-0.55,0.22-1.05,0.59-1.41C10.95,91.22,11.45,91,12,91z"/>
			</g>
			<g>
				<path class="st77" d="M11,9h0.39L7.26,20.28c-0.07,0.21-0.13,0.42-0.17,0.74C7.03,21.43,7,22.02,7,23v117H3H1V23
					c0-0.98,0.03-1.57,0.09-1.98c0.04-0.32,0.1-0.53,0.17-0.74L5.39,9h1.95H11z"/>
			</g>
			<g>
				<path class="st78" d="M17,23v117h-2h-1V93c0-1.1-0.9-2-2-2c-0.55,0-1.05,0.22-1.41,0.59C10.22,91.95,10,92.45,10,93v47H7V23
					c0-0.98,0.03-1.57,0.09-1.98c0.04-0.32,0.1-0.53,0.17-0.74L11.39,9h1.22l4.13,11.28c0.07,0.21,0.13,0.42,0.17,0.74
					C16.97,21.43,17,22.02,17,23z"/>
			</g>
			<g>
				<path class="st36" d="M13.41,142.41c0.37-0.36,0.59-0.86,0.59-1.41v-1h1v9H7v-9h3v1c0,1.1,0.9,2,2,2
					C12.55,143,13.05,142.78,13.41,142.41z"/>
			</g>
			<g>
				<rect x="3" y="140" class="st40" width="4" height="9"/>
			</g>
			<g>
				<path class="st79" d="M11,2.83V9H7.34V2.83C7.34,1.82,8.16,1,9.17,1S11,1.82,11,2.83z"/>
			</g>
		</g>
	</g>
	<path class="st11" d="M18,23c0-1.005-0.03-1.64-0.098-2.104c-0.048-0.381-0.119-0.647-0.223-0.96L13.31,8H12V2.83
		C12,1.27,10.73,0,9.17,0S6.34,1.27,6.34,2.83V8H4.69L0.31,19.967c-0.093,0.282-0.164,0.548-0.209,0.91C0.03,21.36,0,21.995,0,23
		v118h2v9h14v-9h2V23z M8.34,2.83C8.34,2.373,8.712,2,9.17,2S10,2.373,10,2.83V8H8.34V2.83z M4,148v-7h5c0,1.654,1.346,3,3,3
		c0.762,0,1.468-0.288,2-0.783V148H4z M11,141V93c0-0.267,0.103-0.514,0.307-0.713C11.486,92.103,11.733,92,12,92
		c0.552,0,1,0.448,1,1v48c0,0.267-0.103,0.514-0.307,0.713C12.514,141.897,12.267,142,12,142C11.448,142,11,141.552,11,141z M16,139
		h-1V93c0-1.654-1.346-3-3-3c-0.812,0-1.566,0.316-2.107,0.873C9.316,91.434,9,92.188,9,93v46H2V23c0-0.879,0.025-1.463,0.082-1.856
		c0.031-0.246,0.076-0.395,0.117-0.521L6.089,10H6.34h1H11h0.911l3.879,10.593c0.052,0.156,0.097,0.306,0.131,0.571
		C15.975,21.537,16,22.121,16,23V139z"/>
</g>
</svg>
